<svg xmlns="http://www.w3.org/2000/svg" width="107.467" height="107.467" viewBox="0 0 107.467 107.467">
  <g id="borrow" transform="translate(-1 -1)">
    <path id="Path_419" data-name="Path 419" d="M43.933,47.933H47.4A3.47,3.47,0,0,1,50.867,51.4h3.467A6.94,6.94,0,0,0,47.4,44.467V41H43.933v3.467a6.933,6.933,0,1,0,0,13.867H47.4a3.467,3.467,0,1,1,0,6.933H43.933A3.47,3.47,0,0,1,40.467,61.8V60.067H37V61.8a6.94,6.94,0,0,0,6.933,6.933V72.2H47.4V68.733a6.933,6.933,0,1,0,0-13.867H43.933a3.467,3.467,0,0,1,0-6.933Z" transform="translate(26.4 29.333)" fill="#006570"/>
    <path id="Path_420" data-name="Path 420" d="M87.086,64.039,81.35,59.021l8.4-11.2A6.934,6.934,0,0,0,84.2,36.733a5.511,5.511,0,0,0-4.34,2.324C79.1,39.921,78.8,40.2,78.128,40.2s-.976-.279-1.733-1.142a5.208,5.208,0,0,0-8.675,0c-.752.861-1.054,1.141-1.726,1.141s-.972-.279-1.725-1.141a5.5,5.5,0,0,0-4.335-2.326,6.933,6.933,0,0,0-5.547,11.093l8.4,11.194-5.736,5.018a22,22,0,0,0-7.393,14.295H44.333V76.6A19.074,19.074,0,0,0,33.639,59.5,15.617,15.617,0,0,0,42.5,47.133h.1A6.94,6.94,0,0,0,49.535,40.2a6.869,6.869,0,0,0-1.366-4.092A19.872,19.872,0,0,0,29.6,9H20.933A19.956,19.956,0,0,0,1,28.933a19.755,19.755,0,0,0,1.366,7.176A6.871,6.871,0,0,0,1,40.2a6.94,6.94,0,0,0,6.933,6.933h.1A15.614,15.614,0,0,0,16.895,59.5,19.074,19.074,0,0,0,6.2,76.6v1.529L3.508,79.474a4.539,4.539,0,0,0,0,8.119L18.333,95V88.733H51.111A22.024,22.024,0,0,0,71.535,102.6H72.6A22,22,0,0,0,87.086,64.039ZM42.6,43.667V36.733a3.467,3.467,0,0,1,0,6.933Zm-34.668,0a3.467,3.467,0,0,1,0-6.933Zm0-13.414v3.014a6.9,6.9,0,0,0-2.713.555A16.434,16.434,0,0,1,20.933,12.467H29.6A16.434,16.434,0,0,1,45.313,33.821a6.859,6.859,0,0,0-2.711-.555V29.8H40.868a7.133,7.133,0,0,1-6.933-5.417l-.5-1.976ZM11.4,45.4V32.814L31.08,26.76a10.594,10.594,0,0,0,8.055,6.367l0,12.274A12.148,12.148,0,0,1,27,57.533H23.533A12.148,12.148,0,0,1,11.4,45.4ZM31.5,62.31l-1.511,3.834-3.825-5.1A15.514,15.514,0,0,1,31.5,62.31Zm-7.14-1.265-3.825,5.1L19.028,62.31A15.514,15.514,0,0,1,24.365,61.045ZM16,64.08l3.593,9.109,3.94-5.255v6.933H27V67.933l3.94,5.255,3.593-9.109A15.569,15.569,0,0,1,40.867,76.6v1.733H18.333V72.062L9.677,76.39A15.568,15.568,0,0,1,16,64.08ZM14.867,85.267V89.4l-9.807-4.9a1.071,1.071,0,0,1,0-1.917l9.807-4.9V81.8H49.594a21.919,21.919,0,0,0,.449,3.467ZM57.16,45.747A3.467,3.467,0,0,1,59.933,40.2c.673,0,.972.279,1.725,1.141a5.2,5.2,0,0,0,8.672,0c.754-.861,1.054-1.141,1.726-1.141s.976.279,1.732,1.142a5.213,5.213,0,0,0,8.679,0c.757-.863,1.057-1.142,1.733-1.142a3.468,3.468,0,0,1,2.775,5.547L78.133,57.533H66ZM72.6,99.133H71.536A18.537,18.537,0,0,1,59.328,66.647L65.785,61H78.348l6.457,5.647A18.537,18.537,0,0,1,72.6,99.133Z" transform="translate(0 5.867)" fill="#006570"/>
    <path id="Path_421" data-name="Path 421" d="M80.733,2.733a5.19,5.19,0,0,0-4.909,3.559L72.533,3.659A12.183,12.183,0,0,0,64.953,1H49.533a3.47,3.47,0,0,0-3.467,3.467,6.862,6.862,0,0,0,.964,3.467H35.667a5.183,5.183,0,0,0-4.819,7.134,5.171,5.171,0,0,0,0,10A5.156,5.156,0,0,0,34.315,32a5.183,5.183,0,0,0,4.819,7.134h25.82a12.176,12.176,0,0,0,7.58-2.659l3.292-2.633A5.19,5.19,0,0,0,80.733,37.4H89.4V2.733Zm-5.2,26.9-5.167,4.134a8.7,8.7,0,0,1-5.413,1.9H39.133a1.733,1.733,0,1,1,0-3.467h15.6V28.733H35.667a1.733,1.733,0,0,1,0-3.467H54.733V21.8H32.2a1.733,1.733,0,0,1,0-3.467H54.733V14.867H35.667a1.733,1.733,0,0,1,0-3.467H59.216l1.645,1.647a12.06,12.06,0,0,0,8.58,3.553h2.626V13.133H69.441A8.617,8.617,0,0,1,63.312,10.6L60.651,7.933H53a3.47,3.47,0,0,1-3.467-3.467h15.42a8.691,8.691,0,0,1,5.413,1.9L75.533,10.5Zm10.4,4.3h-5.2A1.735,1.735,0,0,1,79,32.2V7.933A1.735,1.735,0,0,1,80.733,6.2h5.2Z" transform="translate(19.067 0)" fill="#006570"/>
    <path id="Path_422" data-name="Path 422" d="M21.2,27.467A1.735,1.735,0,0,1,22.934,29.2H26.4a5.2,5.2,0,0,0-10.4,0h3.467A1.735,1.735,0,0,1,21.2,27.467Z" transform="translate(11.001 16.867)" fill="#006570"/>
    <path id="Path_423" data-name="Path 423" d="M13.2,27.467A1.735,1.735,0,0,1,14.934,29.2H18.4A5.2,5.2,0,1,0,8,29.2h3.467A1.735,1.735,0,0,1,13.2,27.467Z" transform="translate(5.134 16.867)" fill="#006570"/>
    <path id="Path_424" data-name="Path 424" d="M27.333,30.733V29H10v1.733a8.667,8.667,0,1,0,17.333,0Zm-13.57,1.733H23.57a5.2,5.2,0,0,1-9.807,0Z" transform="translate(6.6 20.533)" fill="#006570"/>
  </g>
</svg>
