<svg xmlns="http://www.w3.org/2000/svg" width="115" height="100" viewBox="0 0 85.8 69.713">
  <g id="Group_512" data-name="Group 512" transform="translate(-11061 -2673.925)">
    <g id="earth-paradise_1_" data-name="earth-paradise (1)" transform="translate(11075.529 2673.925)">
      <g id="Group_426" data-name="Group 426" transform="translate(0 0)">
        <path id="Path_331" data-name="Path 331" d="M13.367,22.873l2.021,1.579,2.286-2.927H32.141l2.1,4.043,2.274-1.183-1.793-3.456L39.7,15.322l-1.917-1.7L33.039,18.96h-7.3l-.1-10.319a1.351,1.351,0,0,0,.743.213,1.379,1.379,0,0,0,1.242-.816,1.371,1.371,0,0,0,2.462.049,1.374,1.374,0,0,0,2.541.071,1.377,1.377,0,0,0,2.623-.6,1.6,1.6,0,0,0-.019-.17h.016C35.211,4.044,30.52.468,24.918.524s-9.995,3.718-9.962,7.06h.051a1.372,1.372,0,0,0,2.616.383,1.372,1.372,0,0,0,2.462.049,1.374,1.374,0,0,0,2.54.071,1.37,1.37,0,0,0,1.991.568l.1,10.306H16.426Z" transform="translate(6.544 -0.524)" fill="#fff"/>
        <path id="Path_332" data-name="Path 332" d="M34.4,24.3l.77,1.277c.039-.027,4.116-2.432,7.191-.834a11.54,11.54,0,0,0,5.383,1.332,10.788,10.788,0,0,0,4.138-.776l-.614-1.358a10.057,10.057,0,0,1-8.222-.517C39.236,21.439,34.594,24.179,34.4,24.3Z" transform="translate(16.839 10.333)" fill="#fff"/>
        <path id="Path_333" data-name="Path 333" d="M46.077,36.9c-2.557,1.723-6.789.859-6.831.852l-.307,1.458a14.393,14.393,0,0,0,2.773.258,9.411,9.411,0,0,0,5.194-1.332c2.2-1.485,3.946.572,4.136.809l1.166-.925A4.506,4.506,0,0,0,46.077,36.9Z" transform="translate(19.061 16.898)" fill="#fff"/>
        <path id="Path_334" data-name="Path 334" d="M39.334,42.131l.745,1.287c3.42-1.974,4.984-.238,5.043-.17l1.15-.947C46.18,42.19,43.9,39.5,39.334,42.131Z" transform="translate(19.255 19.28)" fill="#fff"/>
        <path id="Path_335" data-name="Path 335" d="M41.806,33.064l-.32,1.457a4.577,4.577,0,0,0,.983.115,3.907,3.907,0,0,0,1.945-.556c.782-.405,1.4-.727,3.573.36l.666-1.335c-2.641-1.32-3.752-.958-4.927-.35A2.35,2.35,0,0,1,41.806,33.064Z" transform="translate(20.308 14.986)" fill="#fff"/>
        <path id="Path_336" data-name="Path 336" d="M47.79,25.917c.083-2.966-5.21,6.5-5.21,6.5h7.267S47.711,28.883,47.79,25.917Z" transform="translate(20.844 11.625)" fill="#fff"/>
        <path id="Path_337" data-name="Path 337" d="M59.139,31.724a6.838,6.838,0,0,0-6.932-5.837h-.122l.088,5.958c.533-.016.91-.012,1.129,1.062.763,3.762-3.11,13.123-11.459,16.511-10.222,4.114-17.753,2.346-22.273.14A18.792,18.792,0,0,1,11.464,42.3l4.016-.442s-8.072-10.517-8.422-13S.7,43.483.7,43.483l4.464-.492A24.01,24.01,0,0,0,16.953,54.913a29.408,29.408,0,0,0,12.98,2.908,37.991,37.991,0,0,0,14.14-2.879C54.36,50.765,60.619,39.03,59.139,31.724Z" transform="translate(0.342 11.892)" fill="#fff"/>
        <path id="Path_338" data-name="Path 338" d="M4.15,8.017c-2.8,1.932-2.656,6.451-1.747,6.966.8.45,4.516-1.049,6.178-2.937l.977,2.041-.739.235,1.186,2.48-.623.2,1.379,2.887-.6.191,1.516,3.17-.459.146,1.644,3.441L12,27.111l1.91,4-.386.124L15,34.32a18.613,18.613,0,1,0,33.958.287L50.67,32.34l-.833-.425,1.853-2.458-.568-.286,1.6-2.115-.55-.28,1.47-1.953-.392-.2,1.335-1.773-.408-.207,1.15-1.528-.2-.1.27-.355c.393,1.722,1.588,3.125,2.207,3.183.821.073,2.6-3.015,1.274-5.154,1.153,1,2.724,2.173,3.043,1.428.28-.645-.152-2.356-1.064-3.444,1.032-.451,1.6-1.019.782-1.685-.9-.742-2.017-.383-3.01.293a2.557,2.557,0,0,0-.529-3.311c-.974-.839-1.479-.326-1.72.688a8.363,8.363,0,0,0-3.521-.59c-.828.146-.429,1.306,1.217,2.657-2.368-.438-4.6,1.8-4.416,2.487.162.6,2.765,1.694,4.549,1.6l-.557,1.454-.486-.246-.681,1.765-.407-.207-.789,2.051-.395-.2-.868,2.258-.3-.153-.944,2.449-.569-.289-1.093,2.843-.256-.128-.152.392a18.773,18.773,0,0,0-6.806-5.545.935.935,0,0,0-.077-.082l-.031.031A18.506,18.506,0,0,0,31.9,23.445c-.414,0-.824.019-1.23.045h0a18.574,18.574,0,0,0-12.643,6.2l-.739-4.263-.862.277-.652-3.757-.839.267-.6-3.462-.6.191L13.2,15.79l-.623.2-.466-2.711-.295.1-.11-.63c2.2,1.361,4.866,1.591,5.535,1.026.891-.751-.6-5.682-4.163-6.53,2.2-.136,4.982-.52,4.512-1.6C17.18,4.7,14.952,3.392,12.907,3.2c.547-1.494.509-2.641-1-2.5-1.674.152-2.4,1.638-2.665,3.323C8.6,2.382,7.413,1.029,5.228,1.177,3.381,1.3,3.422,2.328,4.251,3.606a11.458,11.458,0,0,0-4.1,2.931C-.517,7.51,1.1,8.3,4.15,8.017ZM54.762,18.741l-.106.274-.4-.206A2.75,2.75,0,0,0,54.762,18.741ZM14.833,42.463a20.448,20.448,0,0,1,4.464-1.89c-.018.495-.036.986-.036,1.507,0,.821.028,1.6.071,2.353a21.952,21.952,0,0,1-4.5-1.831C14.833,42.555,14.833,42.509,14.833,42.463Zm.155,1.954a25.813,25.813,0,0,0,4.47,1.658,31.569,31.569,0,0,0,1,5.364,15.645,15.645,0,0,1-4.071-2.245A16.9,16.9,0,0,1,14.988,44.417Zm3.074,7.638a23.165,23.165,0,0,0,3,1.25,21.965,21.965,0,0,0,1.294,2.918A17.268,17.268,0,0,1,18.062,52.055Zm8.7-14.482a42.467,42.467,0,0,0-5.814.947,30.5,30.5,0,0,1,1.139-6.052,29.748,29.748,0,0,1,5.587-1.122A44.257,44.257,0,0,0,26.765,37.573Zm1.066,15.62a30.116,30.116,0,0,1-5.577-1.119,28.847,28.847,0,0,1-1.207-5.6,43.4,43.4,0,0,0,5.8.9A39.957,39.957,0,0,0,27.832,53.193ZM26.674,39.121c-.043.921-.077,1.871-.077,2.882,0,1.364.048,2.635.128,3.824a41.51,41.51,0,0,1-5.83-.964c-.064-.883-.109-1.8-.109-2.781,0-.67.018-1.317.046-1.941A40.529,40.529,0,0,1,26.674,39.121ZM25.223,57.787a15,15,0,0,1-2.292-3.917,32.938,32.938,0,0,0,5.34.906,21.226,21.226,0,0,0,1.777,4.269A16.907,16.907,0,0,1,25.223,57.787Zm6.959-18.948c1.092,0,2.1.036,3.08.092.063,1.049.106,2.14.106,3.314,0,1.335-.051,2.568-.131,3.731-1.04.063-2.126.1-3.3.1-1.306,0-2.517-.049-3.669-.127-.091-1.223-.144-2.532-.144-3.952,0-1.064.036-2.057.089-3.018C29.451,38.894,30.764,38.839,32.182,38.839Zm-3.867-1.394a42.562,42.562,0,0,1,.968-6.237c.816-.052,1.656-.089,2.559-.089.8,0,1.567.028,2.3.07a41.634,41.634,0,0,1,1,6.195c-.94-.046-1.924-.077-2.967-.077C30.8,37.311,29.527,37.364,28.316,37.445Zm6.791,10.078a38.283,38.283,0,0,1-1.02,5.845c-.661.031-1.349.054-2.069.054-.9,0-1.738-.037-2.553-.092a37.712,37.712,0,0,1-1.053-5.837c1.113.069,2.274.116,3.527.116C33.055,47.611,34.107,47.578,35.106,47.523ZM31.828,59.008a16.431,16.431,0,0,1-1.9-4.111c.669.031,1.364.049,2.085.049.56,0,1.09-.019,1.621-.037A18.1,18.1,0,0,1,31.828,59.008ZM38.8,57.695a16.969,16.969,0,0,1-5.233,1.373,22.047,22.047,0,0,0,1.717-4.257,33.138,33.138,0,0,0,5.675-.915A14.92,14.92,0,0,1,38.8,57.695ZM35.71,53.249a40.436,40.436,0,0,0,.953-5.834,41.35,41.35,0,0,0,6.156-.962,29.9,29.9,0,0,1-1.206,5.668A30.153,30.153,0,0,1,35.71,53.249ZM36.8,39.037a39.467,39.467,0,0,1,6.241,1.016c.03.6.045,1.211.045,1.853,0,1.032-.048,1.993-.115,2.916a38.8,38.8,0,0,1-6.187,1.038c.071-1.131.112-2.331.112-3.617C36.9,41.112,36.856,40.057,36.8,39.037Zm-.1-1.549a43.662,43.662,0,0,0-.943-6.175,30.464,30.464,0,0,1,6.1,1.22,30.585,30.585,0,0,1,1.072,5.906A41.773,41.773,0,0,0,36.7,37.488Zm4.933,18.617a22.275,22.275,0,0,0,1.2-2.773,22.332,22.332,0,0,0,2.873-1.195A17.2,17.2,0,0,1,41.633,56.105Zm5.784-6.865a14.921,14.921,0,0,1-4.005,2.245,32.507,32.507,0,0,0,1.005-5.458,21.982,21.982,0,0,0,4.445-1.8A16.97,16.97,0,0,1,47.417,49.24ZM44.539,44.37c.045-.789.076-1.6.076-2.464,0-.49-.019-.952-.031-1.418a18.516,18.516,0,0,1,4.357,1.893A17.13,17.13,0,0,1,44.539,44.37Zm3.132-8.924A16.95,16.95,0,0,1,48.938,40.6,22.713,22.713,0,0,0,44.5,38.848a33.2,33.2,0,0,0-.874-5.682A14.767,14.767,0,0,1,47.672,35.446ZM46.065,32.5l-.031.074a22.166,22.166,0,0,0-2.939-1.259,22.27,22.27,0,0,0-1.3-3.194A17.2,17.2,0,0,1,46.065,32.5Zm-7.09-6a15.869,15.869,0,0,1,2.3,4.256,33.171,33.171,0,0,0-5.913-1.01,25.325,25.325,0,0,0-1.773-4.7A17.009,17.009,0,0,1,38.975,26.5Zm-7.421-1.525c.082,0,.161,0,.243-.006a21.33,21.33,0,0,1,1.926,4.668c-.608-.027-1.229-.045-1.88-.045-.743,0-1.458.019-2.146.052A22.731,22.731,0,0,1,31.554,24.976ZM25.031,26.42a16.96,16.96,0,0,1,4.726-1.311,26.3,26.3,0,0,0-1.694,4.659,32.635,32.635,0,0,0-5.364.919A15.84,15.84,0,0,1,25.031,26.42ZM22.213,28a22.64,22.64,0,0,0-1.357,3.256,21.631,21.631,0,0,0-3.189,1.376A17.225,17.225,0,0,1,22.213,28ZM16.16,35.431l.028.028A14.069,14.069,0,0,1,20.31,33.1a33.883,33.883,0,0,0-.921,5.825,24.64,24.64,0,0,0-4.5,1.747A16.867,16.867,0,0,1,16.16,35.431Zm-7.115-24,.182.381-.612.2A4.276,4.276,0,0,0,9.044,11.434Z" transform="translate(0 -0.445)" fill="#fff"/>
      </g>
    </g>
    <g id="location-pin" transform="translate(11061 2711.261) rotate(-68)">
      <path id="Path_412" data-name="Path 412" d="M8.664,0H8.624A8.632,8.632,0,0,0,0,8.621c0,3.116,1.419,7.228,4.218,12.223a67.94,67.94,0,0,0,4.2,6.567.31.31,0,0,0,.249.125h.008a.311.311,0,0,0,.25-.139c.021-.031,2.11-3.186,4.171-7.045,2.782-5.208,4.192-9.155,4.192-11.732A8.633,8.633,0,0,0,8.664,0Zm3.981,8.832a4,4,0,1,1-4-4A4,4,0,0,1,12.644,8.832Z" transform="translate(0 0)" fill="#fff"/>
    </g>
  </g>
</svg>
